<?xml version="1.0" encoding="UTF-8"?>
<svg width="256" height="256" viewBox="0 0 256 256" xmlns="http://www.w3.org/2000/svg">
  <defs>
    <linearGradient id="bg" x1="0" y1="0" x2="1" y2="1">
      <stop offset="0" stop-color="#4f46e5"/>
      <stop offset="1" stop-color="#7c3aed"/>
    </linearGradient>
  </defs>

  <!-- фон: скруглённый квадрат -->
  <rect x="0" y="0" width="256" height="256" rx="56" fill="url(#bg)"/>

  <!-- лист документа с загнутым уголком -->
  <g>
    <path d="M74 44 H150 L188 82 V210 Q188 218 180 218 H82 Q74 218 74 210 V52 Q74 44 82 44 Z"
          fill="#ffffff"/>
    <path d="M150 44 L188 82 H158 Q150 82 150 74 Z" fill="#cbd5e1"/>
    <!-- строки текста -->
    <rect x="94" y="150" width="74" height="9" rx="4.5" fill="#c7d2fe"/>
    <rect x="94" y="170" width="74" height="9" rx="4.5" fill="#c7d2fe"/>
    <rect x="94" y="190" width="46" height="9" rx="4.5" fill="#c7d2fe"/>
  </g>

  <!-- перо (квилл) -->
  <g>
    <path d="M212 52 C214 96 188 132 150 150 L120 164 L134 134 C152 96 186 66 212 52 Z"
          fill="#f59e0b"/>
    <path d="M212 52 C182 78 152 116 134 152" fill="none" stroke="#b45309"
          stroke-width="6" stroke-linecap="round"/>
    <!-- кончик-нос пера -->
    <path d="M120 164 L134 152 L138 168 Z" fill="#1e293b"/>
  </g>
</svg>
